:FULLY-SPECIFIED
:FORCE-ALL-JOINTS-BE-3DOF
:DEGREES
2956
root -5.89556 13.2637 -28.9236 161.669 -68.1728 -158.504
lfemur -67.7373 42.4424 -6.83803
ltibia 76.4357 -0 0
lfoot -7.78502 -2.38041 0.0162567
ltoes -38.7081 0 0
rfemur -34.2234 -17.3187 23.0685
rtibia 90.1594 -0 0
rfoot -40.2431 -30.1205 0.010305
rtoes -13.7452 0 0
lowerback 16.2353 5.25827 1.37993
upperback -4.37145 7.56095 1.43609
thorax -14.0623 3.44441 -1.28443
lowerneck -2.84423 9.15031 1.43538
upperneck 7.97447 11.9847 1.71711
head 3.06176 6.03309 0.771631
lclavicle 7.95139e-16 -2.50469e-14 0
lhumerus 6.05486 14.1083 82.8455
lradius 90.5044 -0 0
lwrist -17.7068 0 0
lhand -38.4754 28.7333 0.0171895
lfingers 7.12502 -0 0
lthumb -11.4973 58.383 0.0180706
rclavicle 7.95139e-16 -2.50469e-14 0
rhumerus -54.1125 50.7073 -107.963
rradius 112.56 -0 0
rwrist -81.3 0 0
rhand 6.41394 -25.5957 0.0509024
rfingers 7.12502 -0 0
rthumb 31.7107 -52.778 0.0704552
2957
root -5.84181 13.3119 -28.9902 161.16 -68.7713 -157.897
lfemur -67.7029 41.7619 -7.00111
ltibia 75.5912 -0 0
lfoot -7.75483 -2.07026 0.0219565
ltoes -38.5655 0 0
rfemur -34.2618 -16.9848 23.2875
rtibia 89.8297 -0 0
rfoot -40.0139 -30.0906 0.0146461
rtoes -13.7173 0 0
lowerback 16.2289 5.23243 1.37762
upperback -4.3265 7.52105 1.41717
thorax -14.0056 3.42686 -1.29033
lowerneck -2.79861 8.95897 1.29952
upperneck 7.78569 11.7355 1.74628
head 2.99152 5.90851 0.799514
lclavicle 7.95139e-16 -2.50469e-14 0
lhumerus 6.20556 13.8807 82.8098
lradius 90.3731 -0 0
lwrist -17.3455 0 0
lhand -38.245 28.7806 0.0240156
lfingers 7.12502 -0 0
lthumb -11.2749 58.4371 0.0252197
rclavicle 7.95139e-16 -2.50469e-14 0
rhumerus -52.2049 50.4231 -106.535
rradius 112.421 -0 0
rwrist -80.9096 0 0
rhand 5.98839 -25.7029 0.0707859
rfingers 7.12502 -0 0
rthumb 31.3027 -52.9341 0.0979174
2958
root -5.78805 13.36 -29.0568 160.589 -69.4005 -157.22
lfemur -67.6697 41.0279 -7.18165
ltibia 74.6679 -0 0
lfoot -7.72202 -1.73779 0.0277237
ltoes -38.4027 0 0
rfemur -34.2975 -16.6227 23.5244
rtibia 89.4737 -0 0
rfoot -39.7685 -30.0556 0.0193071
rtoes -13.6889 0 0
lowerback 16.2225 5.20593 1.37598
upperback -4.27846 7.48004 1.39647
thorax -13.9452 3.40877 -1.29795
lowerneck -2.74911 8.755 1.15493
upperneck 7.58354 11.4698 1.77812
head 2.91578 5.77567 0.829204
lclavicle 7.95139e-16 -2.50469e-14 0
lhumerus 6.36212 13.6415 82.77
lradius 90.238 -0 0
lwrist -16.953 0 0
lhand -37.9977 28.8367 0.0311951
lfingers 7.12502 -0 0
lthumb -11.0362 58.5005 0.0327291
rclavicle 7.95139e-16 -2.50469e-14 0
rhumerus -50.175 50.0699 -105.022
rradius 112.274 -0 0
rwrist -80.492 0 0
rhand 5.52697 -25.82 0.0915648
rfingers 7.12502 -0 0
rthumb 30.8602 -53.1041 0.126597
2959
root -5.7343 13.4082 -29.1234 159.945 -70.0589 -156.466
lfemur -67.6361 40.2439 -7.37767
ltibia 73.6713 -0 0
lfoot -7.68659 -1.38444 0.0335122
ltoes -38.221 0 0
rfemur -34.3302 -16.2341 23.7777
rtibia 89.093 -0 0
rfoot -39.5076 -30.016 0.0242069
rtoes -13.6599 0 0
lowerback 16.216 5.17878 1.37493
upperback -4.2275 7.43791 1.37412
thorax -13.8813 3.39016 -1.30712
lowerneck -2.69582 8.53902 1.00203
upperneck 7.3688 11.1884 1.81278
head 2.8349 5.63498 0.860681
lclavicle 7.95139e-16 -2.50469e-14 0
lhumerus 6.52459 13.3905 82.7263
lradius 90.099 -0 0
lwrist -16.5314 0 0
lhand -37.7347 28.901 0.0386081
lfingers 7.12502 -0 0
lthumb -10.7823 58.5725 0.0404748
rclavicle 7.95139e-16 -2.50469e-14 0
rhumerus -48.0412 49.6446 -103.44
rradius 112.12 -0 0
rwrist -80.0486 0 0
rhand 5.03204 -25.9465 0.112899
rfingers 7.12502 -0 0
rthumb 30.3855 -53.2872 0.15603
2960
root -5.68054 13.4564 -29.19 159.221 -70.7446 -155.625
lfemur -67.6009 39.4129 -7.58729
ltibia 72.6069 -0 0
lfoot -7.64858 -1.01168 0.0392751
ltoes -38.0213 0 0
rfemur -34.3599 -15.821 24.0463
rtibia 88.6888 -0 0
rfoot -39.2323 -29.972 0.0292649
rtoes -13.63 0 0
lowerback 16.2093 5.15093 1.37434
upperback -4.17379 7.39463 1.35025
thorax -13.8142 3.37102 -1.31765
lowerneck -2.6388 8.31164 0.841211
upperneck 7.14229 10.8921 1.8504
head 2.74921 5.4868 0.893924
lclavicle 7.95139e-16 -2.50469e-14 0
lhumerus 6.693 13.128 82.6791
lradius 89.9561 -0 0
lwrist -16.0828 0 0
lhand -37.4569 28.9731 0.0461351
lfingers 7.12502 -0 0
lthumb -10.5142 58.6526 0.048333
rclavicle 7.95139e-16 -2.50469e-14 0
rhumerus -45.8223 49.1445 -101.806
rradius 111.96 -0 0
rwrist -79.5809 0 0
rhand 4.50593 -26.0817 0.134453
rfingers 7.12502 -0 0
rthumb 29.8808 -53.4825 0.185757
2961
root -5.62679 13.5045 -29.2565 158.403 -71.4558 -154.686
lfemur -67.5627 38.5384 -7.80871
ltibia 71.48 -0 0
lfoot -7.608 -0.620922 0.0449652
ltoes -37.8047 0 0
rfemur -34.3863 -15.3853 24.3288
rtibia 88.2625 -0 0
rfoot -38.9434 -29.924 0.0344016
rtoes -13.599 0 0
lowerback 16.2025 5.12239 1.37413
upperback -4.1175 7.3502 1.32498
thorax -13.7439 3.35136 -1.32936
lowerneck -2.5781 8.07348 0.67287
upperneck 6.90477 10.5817 1.89112
head 2.65903 5.33154 0.928914
lclavicle 7.95139e-16 -2.50469e-14 0
lhumerus 6.86738 12.8541 82.6286
lradius 89.8091 -0 0
lwrist -15.6094 0 0
lhand -37.1655 29.0523 0.0536583
lfingers 7.12502 -0 0
lthumb -10.2329 58.7402 0.0561822
rclavicle 7.95139e-16 -2.50469e-14 0
rhumerus -43.5366 48.5679 -100.137
rradius 111.792 -0 0
rwrist -79.0905 0 0
rhand 3.95098 -26.225 0.155899
rfingers 7.12502 -0 0
rthumb 29.3484 -53.6891 0.215328
2962
root -5.57304 13.5527 -29.3231 157.477 -72.1905 -153.634
lfemur -67.5202 37.6236 -8.04023
ltibia 70.2962 -0 0
lfoot -7.56487 -0.213629 0.0505349
ltoes -37.5723 0 0
rfemur -34.4092 -14.9289 24.6242
rtibia 87.8157 -0 0
rfoot -38.6417 -29.8723 0.0395393
rtoes -13.5668 0 0
lowerback 16.1955 5.09312 1.37419
upperback -4.05882 7.30458 1.29844
thorax -13.6707 3.33117 -1.34206
lowerneck -2.51382 7.82514 0.497407
upperneck 6.65706 10.2579 1.93508
head 2.56471 5.16957 0.965628
lclavicle 7.95139e-16 -2.50469e-14 0
lhumerus 7.04777 12.5688 82.5754
lradius 89.6579 -0 0
lwrist -15.1131 0 0
lhand -36.8615 29.1382 0.0610634
lfingers 7.12502 -0 0
lthumb -9.93948 58.8348 0.063904
rclavicle 7.95139e-16 -2.50469e-14 0
rhumerus -41.202 47.914 -98.4495
rradius 111.619 -0 0
rwrist -78.5789 0 0
rhand 3.36955 -26.3759 0.176918
rfingers 7.12502 -0 0
rthumb 28.7906 -53.9063 0.244311
2963
root -5.51928 13.6009 -29.3897 156.427 -72.9464 -152.454
lfemur -67.4724 36.6717 -8.28025
ltibia 69.0607 -0 0
lfoot -7.51921 0.208758 0.0559371
ltoes -37.3251 0 0
rfemur -34.4286 -14.4536 24.9311
rtibia 87.3497 -0 0
rfoot -38.3281 -29.8172 0.0446031
rtoes -13.5331 0 0
lowerback 16.1882 5.0631 1.37441
upperback -3.9979 7.25778 1.27077
thorax -13.5947 3.31045 -1.35556
lowerneck -2.44602 7.56724 0.315217
upperneck 6.39991 9.92157 1.9824
head 2.46658 5.00129 1.00404
lclavicle 7.95139e-16 -2.50469e-14 0
lhumerus 7.2342 12.2724 82.5195
lradius 89.5025 -0 0
lwrist -14.596 0 0
lhand -36.546 29.2301 0.0682402
lfingers 7.12502 -0 0
lthumb -9.63494 58.9357 0.0713849
rclavicle 7.95139e-16 -2.50469e-14 0
rhumerus -38.8356 47.1828 -96.7597
rradius 111.439 -0 0
rwrist -78.0476 0 0
rhand 2.76399 -26.5336 0.197208
rfingers 7.12502 -0 0
rthumb 28.2095 -54.1331 0.272292
2964
root -5.46553 13.649 -29.4563 155.231 -73.721 -151.124
lfemur -67.4182 35.6862 -8.5273
ltibia 67.779 -0 0
lfoot -7.47107 0.644795 0.0611251
ltoes -37.0643 0 0
rfemur -34.4444 -13.9613 25.2484
rtibia 86.8658 -0 0
rfoot -38.0035 -29.7592 0.0495211
rtoes -13.4978 0 0
lowerback 16.1807 5.03232 1.37469
upperback -3.93493 7.20977 1.24208
thorax -13.5162 3.2892 -1.3697
lowerneck -2.37478 7.30039 0.126698
upperneck 6.13412 9.57344 2.0332
head 2.36496 4.82708 1.04413
lclavicle 7.95139e-16 -2.50469e-14 0
lhumerus 7.42669 11.9648 82.4614
lradius 89.3427 -0 0
lwrist -14.0604 0 0
lhand -36.2201 29.3275 0.0750845
lfingers 7.12502 -0 0
lthumb -9.32032 59.0424 0.0785173
rclavicle 7.95139e-16 -2.50469e-14 0
rhumerus -36.4531 46.3756 -95.0816
rradius 111.254 -0 0
rwrist -77.4981 0 0
rhand 2.13663 -26.6975 0.216484
rfingers 7.12502 -0 0
rthumb 27.6074 -54.3686 0.298881
2965
root -5.41178 13.6972 -29.5229 153.864 -74.5114 -149.619
lfemur -67.3568 34.6703 -8.77999
ltibia 66.4566 -0 0
lfoot -7.42044 1.09304 0.0660533
ltoes -36.7909 0 0
rfemur -34.4565 -13.4541 25.5749
rtibia 86.3655 -0 0
rfoot -37.6687 -29.6986 0.0542256
rtoes -13.4605 0 0
lowerback 16.1729 5.00076 1.37494
upperback -3.87008 7.16053 1.2125
thorax -13.4353 3.26743 -1.38427
lowerneck -2.30018 7.02521 -0.067754
upperneck 5.86045 9.2143 2.08757
head 2.26021 4.64732 1.08587
lclavicle 7.95139e-16 -2.50469e-14 0
lhumerus 7.62527 11.6462 82.4014
lradius 89.1785 -0 0
lwrist -13.5082 0 0
lhand -35.8848 29.4299 0.0814987
lfingers 7.12502 -0 0
lthumb -8.99666 59.1543 0.0852006
rclavicle 7.95139e-16 -2.50469e-14 0
rhumerus -34.0688 45.4943 -93.4283
rradius 111.063 -0 0
rwrist -76.9319 0 0
rhand 1.48983 -26.867 0.234479
rfingers 7.12502 -0 0
rthumb 26.9867 -54.612 0.323713
2966
root -5.35802 13.7454 -29.5894 152.295 -75.3142 -147.908
lfemur -67.2873 33.6273 -9.03701
ltibia 65.0988 -0 0
lfoot -7.36737 1.55204 0.0706774
ltoes -36.506 0 0
rfemur -34.4649 -12.9337 25.9096
rtibia 85.8503 -0 0
rfoot -37.3246 -29.6357 0.058653
rtoes -13.4211 0 0
lowerback 16.1647 4.96839 1.37505
upperback -3.80352 7.11004 1.18218
thorax -13.3523 3.24513 -1.39911
lowerneck -2.22231 6.74229 -0.267745
upperneck 5.57967 8.84493 2.14561
head 2.15264 4.46241 1.12922
lclavicle 7.95139e-16 -2.50469e-14 0
lhumerus 7.82997 11.3168 82.3398
lradius 89.0098 -0 0
lwrist -12.9415 0 0
lhand -35.5412 29.5366 0.0873927
lfingers 7.12502 -0 0
lthumb -8.66498 59.2708 0.091342
rclavicle 7.95139e-16 -2.50469e-14 0
rhumerus -31.6954 44.542 -91.8112
rradius 110.866 -0 0
rwrist -76.3505 0 0
rhand 0.825953 -27.0414 0.250951
rfingers 7.12502 -0 0
rthumb 26.3495 -54.8622 0.346458
